<?xml version="1.0" standalone="no"?>
<!DOCTYPE svg PUBLIC "-//W3C//DTD SVG 20010904//EN"
 "http://www.w3.org/TR/2001/REC-SVG-20010904/DTD/svg10.dtd">
<svg version="1.0" xmlns="http://www.w3.org/2000/svg"
 width="260.000000pt" height="260.000000pt" viewBox="0 0 260.000000 260.000000"
 preserveAspectRatio="xMidYMid meet">
<metadata>
Created by potrace 1.14, written by Peter Selinger 2001-2017
</metadata>
<g transform="translate(0.000000,260.000000) scale(0.100000,-0.100000)"
fill="#000000" stroke="none">
<path d="M1186 2564 c-300 -73 -547 -430 -638 -924 -31 -166 -31 -514 0 -680
61 -334 190 -602 366 -767 446 -416 998 -47 1148 767 31 166 31 514 0 680
-117 634 -482 1019 -876 924z m228 -39 c297 -77 532 -427 613 -911 25 -152 25
-476 0 -628 -81 -484 -316 -834 -613 -911 -370 -96 -728 296 -831 911 -25 152
-25 476 0 628 103 615 461 1007 831 911z"/>
<path d="M986 1897 c-163 -315 -296 -579 -296 -587 0 -8 138 -276 306 -597
270 -515 309 -583 329 -583 21 0 57 67 325 590 197 385 300 598 297 610 -3 11
-143 272 -312 580 -266 485 -311 560 -330 560 -20 0 -60 -71 -319 -573z m409
-101 c53 -291 94 -530 93 -531 -4 -4 -728 62 -733 67 -2 2 116 236 263 520
210 407 268 512 274 495 4 -12 50 -260 103 -551z"/>
</g>
</svg>
